{"title":"The Double 2013 480p HDRip XviD titler","uid":10174619,"size":1313056242,"categoryP":"video","categoryS":"movies","magnet":"?xt=urn:btih:14930034f780f55f6976a3652cc3b53e96a504e7&amp;dn=The+Double+2013+480p+HDRip+XviD+titler&amp;tr=udp%3A%2F%2Ftracker.openbittorrent.com%3A80&amp;tr=udp%3A%2F%2Fopen.demonii.com%3A1337&amp;tr=udp%3A%2F%2Ftracker.coppersurfer.tk%3A6969&amp;tr=udp%3A%2F%2Fexodus.desync.com%3A6969","seeders":0,"leechers":0,"uploader":"movieZ.freak","files":5,"time":1400450605,"description":"SOURCE: The Double 2013 720p WEB-DL H264- RARBG\n\n\n\n &lt;a href=&quot;\nhttp://www.imdb.com/title/tt1825157/&quot; rel=&quot;nofollow&quot; target=&quot;_NEW&quot;&gt;\nhttp://www.imdb.com/title/tt1825157/&lt;/a&gt;\n\n\n &lt;a href=&quot;\nhttp://www.rottentomatoes.com/m/the_double_2013/&quot; rel=&quot;nofollow&quot; target=&quot;_NEW&quot;&gt;\nhttp://www.rottentomatoes.com/m/the_double_2013/&lt;/a&gt;\n\n\n &lt;a href=&quot;\nhttp://en.wikipedia.org/wiki/The_Double_%282013_film%29&quot; rel=&quot;nofollow&quot; target=&quot;_NEW&quot;&gt;\nhttp://en.wikipedia.org/wiki/The_Double_%282013_film%29&lt;/a&gt;\n\n\n\n\n- SAMPLE: Yes\n\n\n- SUBTITLE: English\n\n\n- LANGUAGE / AUDIO: English\n\n\n\n\nSCREENSHOTS:\n-------------------    &lt;a href=&quot;\nhttp://someimage.com/xIpQ&quot; rel=&quot;nofollow&quot; target=&quot;_NEW&quot;&gt;\nhttp://someimage.com/xIpQ&lt;/a&gt;\n\n\n\n\nDIRECTOR: Richard Ayoade\n\n\n\nCAST: Mia Wasikowska, Jesse Eisenberg, Noah Taylor, Sally Hawkins, Craig Roberts, Paddy Considine, Cathy Moriarty, James Fox, Rade Serbedzija\n\n\n\nPLOT:\n-----------\nEisenberg plays Simon, a timid, isolated man who's overlooked at work, scorned by his mother, and ignored by the woman of his dreams (Wasikowska). The arrival of a new co-worker, James (also played by Eisenberg), serves to upset the balance. James is both Simon's exact physical double and his opposite - confident, charismatic and good with women. To Simon's horror, James slowly starts taking over his life.\n\n\n************************************\n\n- Duration: 1h 33mn\n\n- Bit rate:  1692 Kbps\n\n- Res: 854 x 460\n\n- AR: 1.85:1\n\n- FPS: 23.976 fps\n\n- Audio: AC3, 2 channels, 128 Kbps\n\n************************************\n\n\nGeneral\n-------------\nFormat : AVI\nFormat/Info : Audio Video Interleave\nFile size : 1.19 GiB\nDuration : 1h 33mn\nOverall bit rate : 1829 Kbps\nWriting library : VirtualDub build 35491\n\n\nVideo\n----------\nFormat : MPEG-4 Visual\nFormat profile : Advanced Simple@L5\nFormat settings, BVOP : 2\nFormat settings, QPel : No\nFormat settings, GMC : No warppoints\nFormat settings, Matrix : Default (H.263)\nCodec ID : XVID\nCodec ID/Hint : XviD\nDuration : 1h 33mn\nBit rate : 1692 Kbps\nWidth : 854 pixels\nHeight : 460 pixels\nDisplay aspect ratio : 1.85:1\nFrame rate : 23.976 fps\nColor space : YUV\nChroma subsampling : 4:2:0\nBit depth : 8 bits\nScan type : Progressive\nCompression mode : Lossy\nBits/(Pixel*Frame) : 0.180\nStream size : 1.10 GiB (92%)\nWriting library : XviD 65\n\n\nAudio\n----------\nFormat : AC-3\nFormat/Info : Audio Coding 3\nMode extension : CM (complete main)\nFormat settings, Endianness : Big\nCodec ID : 2000\nDuration : 1h 33mn\nBit rate mode : Constant\nBit rate : 128 Kbps\nChannel(s) : 2 channels\nChannel positions : Front: L R\nSampling rate : 48.0 KHz\nBit depth : 16 bits\nCompression mode : Lossy\nStream size : 85.2 MiB (7%)\nAlignment : Aligned on interleaves\nInterleave, duration : 42 ms (1.00 video frame)\nInterleave, preload duration : 512 ms","torrent":{"xt":"urn:btih:14930034f780f55f6976a3652cc3b53e96a504e7","amp;dn":"The+Double+2013+480p+HDRip+XviD+titler","amp;tr":["udp%3A%2F%2Ftracker.openbittorrent.com%3A80","udp%3A%2F%2Fopen.demonii.com%3A1337","udp%3A%2F%2Ftracker.coppersurfer.tk%3A6969","udp%3A%2F%2Fexodus.desync.com%3A6969"],"infoHash":"14930034f780f55f6976a3652cc3b53e96a504e7","infoHashBuffer":{"type":"Buffer","data":[20,147,0,52,247,128,245,95,105,118,163,101,44,195,181,62,150,165,4,231]},"announce":[],"urlList":[]}}